<?xml version="1.0" standalone="no"?><!DOCTYPE svg PUBLIC "-//W3C//DTD SVG 1.1//EN" "http://www.w3.org/Graphics/SVG/1.1/DTD/svg11.dtd"><svg t="1706254392429" class="icon" viewBox="0 0 1024 1024" version="1.1" xmlns="http://www.w3.org/2000/svg" p-id="8730" xmlns:xlink="http://www.w3.org/1999/xlink" width="200" height="200"><path d="M641.4848 948.224a24.96 24.96 0 0 1-22.4768-15.872 25.2928 25.2928 0 0 1 5.632-26.9568l275.456-275.456a91.136 91.136 0 0 0 0-128L524.544 123.4944a25.0112 25.0112 0 0 1 0.512-35.5328 25.0112 25.0112 0 0 1 35.5328 0.512l373.9136 377.344a141.312 141.312 0 0 1 0 198.5792l-275.456 275.5584a25.1392 25.1392 0 0 1-17.5616 8.2432zM118.3488 107.776a69.504 69.504 0 0 0-69.6064 69.6064v301.9776H444.416V107.776H118.3488z m135.936 255.488a69.632 69.632 0 1 1 0.3072-139.2896 69.5552 69.5552 0 0 1 49.024 118.912 69.3248 69.3248 0 0 1-49.3056 20.3776z" fill="#FE6D39" p-id="8731"></path><path d="M850.048 520.704L444.416 107.776l-143.488 134.784a69.4272 69.4272 0 0 1-31.1296 121.2416 69.12 69.12 0 0 1-68.9664-26.5472l-152.064 142.208 420.9408 428.032a69.1712 69.1712 0 0 0 100.096 0l280.2688-289.4592a69.7856 69.7856 0 0 0 0-97.28z" fill="#FE6D39" p-id="8732"></path></svg>