<?xml version="1.0" standalone="no"?><!DOCTYPE svg PUBLIC "-//W3C//DTD SVG 1.1//EN" "http://www.w3.org/Graphics/SVG/1.1/DTD/svg11.dtd"><svg t="1703507187454" class="icon" viewBox="0 0 1024 1024" version="1.1" xmlns="http://www.w3.org/2000/svg" p-id="9137" xmlns:xlink="http://www.w3.org/1999/xlink" width="200" height="200"><path d="M529.725793 141.241379c21.362759 14.194759 32.061793 28.389517 28.495448 49.664-3.566345 21.292138-14.247724 31.938207-35.610482 31.938207h-163.822345c-21.362759 0-35.610483-10.646069-39.176828-28.389517-7.115034-17.725793 0-35.486897 14.247724-46.11531 3.566345-3.54869 7.115034-3.54869 10.68138-7.09738h185.202758z" fill="#0996e0" p-id="9138"></path><path d="M504.79669 882.758621c-14.247724 0-14.247724-3.54869-17.796414-17.743449v-7.097379-163.204414c-7.13269 0-14.247724-3.531034-21.362759-7.097379-3.566345 0-3.566345-3.531034-7.132689-7.097379 0-17.725793 17.814069-35.486897 35.610482-35.486897 10.681379 0 17.814069-7.079724 17.814069-14.177103 7.115034-21.292138 17.796414-46.11531 24.929104-67.407449 7.115034-21.292138 21.362759-39.017931 42.725517-46.132965 10.681379-3.531034 67.672276-10.628414 124.645517-10.628414 32.061793 0 60.557241 0 85.486345 3.531035V261.861517v-17.725793c-3.566345-39.017931-28.495448-67.407448-67.672276-70.973793-32.061793-3.531034-64.088276 0-99.716414 0v7.097379c-3.566345 49.681655-24.929103 70.973793-74.78731 70.973793H337.425655c-42.743172 0-67.672276-21.292138-71.238621-63.876413V173.197241H173.60331c-42.743172 0-64.105931 21.274483-67.672276 67.407449v557.020689c0 60.310069 24.929103 85.150897 89.035035 88.699587h10.681379L504.79669 882.758621z m-227.928276-503.808h334.777379c21.362759 0 32.044138 7.097379 32.044138 24.840827s-10.681379 28.389517-32.044138 28.389518H276.868414c-17.796414 0-28.477793-10.646069-28.477793-28.389518 0-14.194759 10.681379-24.840828 28.477793-24.840827z" fill="#0996e0" p-id="9139"></path><path d="M819.906207 551.159172c21.362759 3.54869 35.628138 17.743448 42.743172 39.017931 7.13269 21.309793 14.247724 42.584276 24.929104 63.876414 3.566345 3.531034 7.13269 10.646069 10.681379 10.646069 21.362759 0 32.061793 10.646069 39.194483 24.840828v10.628414l-24.946759 7.097379c0 10.646069 3.566345 17.743448 3.566345 28.389517v113.522759c0 7.115034-3.566345 10.663724-3.566345 17.743448 0 3.54869-3.566345 3.54869-7.115034 7.097379-17.814069 0-39.194483 3.54869-56.990897 0-10.681379 0-17.796414-7.097379-17.796414-17.743448v-17.725793c0-7.097379-3.566345-7.097379-7.132689-7.097379H624.039724c-3.566345 0-7.115034 3.531034-7.115034 7.097379 0 10.646069-3.566345 17.743448-7.13269 28.371862 0 3.54869-3.566345 7.097379-10.681379 7.097379h-53.424552c-14.230069 0-17.796414-3.531034-17.796414-17.743448V849.213793v-145.478621c-7.13269 0-10.681379-3.531034-17.814069-3.531034-3.54869 0-3.54869-3.54869-3.548689-7.097379 0-14.194759 14.230069-31.955862 32.044137-31.955862 7.115034 0 14.247724-3.531034 17.814069-14.177104 7.115034-21.292138 14.230069-39.017931 21.362759-60.310069 7.115034-17.743448 17.796414-31.938207 35.610483-39.017931 7.115034-3.566345 60.557241-7.115034 110.397793-7.115034 24.929103 3.54869 60.557241 3.54869 96.167724 10.646069z m39.194483 120.637794c-7.13269-21.292138-14.247724-46.132966-21.362759-67.407449-7.13269-17.743448-17.831724-31.938207-35.628138-35.486896-21.362759-3.531034-60.557241-3.531034-85.46869-3.531035-32.061793 0-60.557241 0-92.601379 7.079724-7.115034 3.531034-14.247724 10.646069-17.796414 17.743449-10.699034 24.840828-21.362759 53.21269-35.628138 81.602207a788.51531 788.51531 0 0 0 288.485518 0z m-259.990069 99.345655c7.13269 0 14.247724-3.54869 17.814069-3.54869 3.54869 0 7.115034-7.097379 7.115034-10.646069 0-3.54869-3.566345-7.097379-7.115034-10.646069-21.362759-7.097379-39.194483-17.743448-60.557242-24.840827-3.54869 0-10.681379 0-10.681379 3.548689-7.115034 7.097379-7.115034 17.743448-3.54869 28.389517 0 7.097379 7.115034 14.194759 14.230069 14.194759 14.247724 3.531034 28.495448 3.531034 42.743173 3.531035z m242.176 0c10.681379 0 21.362759-3.54869 35.610482-3.54869 7.115034 0 14.247724-7.097379 14.247725-14.194759v-14.194758c0-14.194759-7.13269-17.743448-17.814069-10.646069-21.362759 7.097379-39.176828 14.194759-56.973242 21.292138-3.566345 3.531034-10.681379 3.531034-10.681379 10.646069 0 7.097379 7.115034 10.646069 10.681379 10.646069h24.929104z" fill="#0996e0" p-id="9140"></path><path d="M249.008552 512m28.513103 0l171.890759 0q28.513103 0 28.513103 28.513103l0 0.017656q0 28.513103-28.513103 28.513103l-171.890759 0q-28.513103 0-28.513103-28.513103l0-0.017656q0-28.513103 28.513103-28.513103Z" fill="#0996e0" p-id="9141"></path></svg>