<?xml version="1.0" standalone="no"?><!DOCTYPE svg PUBLIC "-//W3C//DTD SVG 1.1//EN" "http://www.w3.org/Graphics/SVG/1.1/DTD/svg11.dtd"><svg t="1705022164977" class="icon" viewBox="0 0 1024 1024" version="1.1" xmlns="http://www.w3.org/2000/svg" p-id="16579" xmlns:xlink="http://www.w3.org/1999/xlink" width="200" height="200"><path d="M391.424 64.768h-258.56C94.848 64.768 64 95.616 64 133.632v258.432c0 38.016 30.848 68.864 68.864 68.864h258.432c38.016 0 68.864-30.848 68.864-68.864V133.632c0.128-38.016-30.72-68.864-68.736-68.864zM374.144 340.48c0 19.072-15.488 34.432-34.432 34.432H184.576c-19.072 0-34.432-15.488-34.432-34.432V185.344c0-19.072 15.488-34.432 34.432-34.432h155.136c19.072 0 34.432 15.488 34.432 34.432V340.48z" fill="#FFD200" p-id="16580"></path><path d="M891.136 64.768h-258.56c-38.016 0-68.864 30.848-68.864 68.864v258.432c0 38.016 30.848 68.864 68.864 68.864h258.432c38.016 0 68.864-30.848 68.864-68.864V133.632c0.128-38.016-30.72-68.864-68.736-68.864zM391.424 564.48h-258.56C94.848 564.48 64 595.328 64 633.344v258.432c0 38.016 30.848 68.864 68.864 68.864h258.432c38.016 0 68.864-30.848 68.864-68.864V633.344c0.128-38.016-30.72-68.864-68.736-68.864z m499.712 0h-258.56c-38.016 0-68.864 30.848-68.864 68.864v258.432c0 38.016 30.848 68.864 68.864 68.864h258.432c38.016 0 68.864-30.848 68.864-68.864V633.344c0.128-38.016-30.72-68.864-68.736-68.864z" fill="#4A94FF" p-id="16581"></path></svg>