<?xml version="1.0" standalone="no"?><!DOCTYPE svg PUBLIC "-//W3C//DTD SVG 1.1//EN" "http://www.w3.org/Graphics/SVG/1.1/DTD/svg11.dtd"><svg t="1704696295740" class="icon" viewBox="0 0 1024 1024" version="1.1" xmlns="http://www.w3.org/2000/svg" p-id="17536" xmlns:xlink="http://www.w3.org/1999/xlink" width="200" height="200"><path d="M209.575385 349.44l0.295384-3.938462c11.52-141.833846 132.135385-252.996923 274.609231-252.996923 145.673846 0 265.206154 113.673846 274.904615 256.935385h19.249231c-9.6-153.846154-137.796923-276.135385-294.153846-276.135385-152.418462 0-281.452308 118.843077-293.76 270.572308-0.196923 1.821538-0.295385 3.643077-0.393846 5.464615h19.249231v0.098462z m548.676923 49.526154c-15.409231 137.403077-132.332308 244.627692-273.772308 244.627692S226.215385 538.781538 210.707692 398.966154h-19.347692c15.655385 150.596923 141.046154 263.827692 293.070769 263.827692 152.123077 0 277.612308-115.790769 293.070769-263.827692h-19.24923z" fill="#108EE9" p-id="17537"></path><path d="M484.48 154.141538c-117.956923 0-213.956923 95.950769-213.956923 213.956924s95.950769 213.956923 213.956923 213.956923 213.956923-95.950769 213.956923-213.956923c-0.098462-118.006154-96.049231-213.956923-213.956923-213.956924z m0 391.729231c-98.166154 0-177.772308-79.606154-177.772308-177.772307s79.606154-177.772308 177.772308-177.772308 177.772308 79.606154 177.772308 177.772308-79.556923 177.772308-177.772308 177.772307z" fill="#108EE9" p-id="17538"></path><path d="M484.48 491.076923c-67.790769 0-122.978462-55.187692-122.978462-122.978461s55.187692-122.978462 122.978462-122.978462S607.458462 300.307692 607.458462 368.098462s-55.187692 122.978462-122.978462 122.978461z m0-201.255385c-43.175385 0-78.276923 35.101538-78.276923 78.276924s35.101538 78.276923 78.276923 78.276923 78.276923-35.101538 78.276923-78.276923-35.2-78.276923-78.276923-78.276924z" fill="#108EE9" p-id="17539"></path><path d="M436.233846 542.129231c0-49.526154-0.196923-99.150769 0.098462-148.676923 0.196923-34.707692 17.329231-54.793846 46.326154-54.99077 30.867692-0.196923 51.938462 21.710769 52.135384 55.581539 0.393846 55.187692 0 110.375385 0.196923 165.563077 0.098462 29.341538 6.744615 36.529231 37.956923 39.335384 62.769231 5.464615 125.587692 10.683077 188.356923 15.409231 39.729231 3.003077 55.483077 19.692308 47.704616 55.975385-15.753846 73.452308-46.769231 225.329231-62.818462 298.683077-4.332308 19.987692-17.476923 29.341538-38.153846 30.178461-28.356923 1.230769-56.812308 1.92-85.267692 2.018462-80 0.295385-130.461538 0.196923-210.461539 0-31.064615 0-41.058462-6.449231-50.756923-33.378462-26.830769-74.338462-69.218462-227.347692-95.852307-301.686154-7.778462-21.612308 3.84-45.489231 26.338461-53.858461 21.366154-7.876923 50.658462 2.707692 60.012308 23.286154 10.584615 23.483077 20.184615 47.409231 28.947692 71.433846 5.169231 14.227692 13.095385 25.649231 30.375385 23.089231 18.461538-2.904615 25.304615-16.147692 25.206154-33.083077-0.541538-51.643077-0.443077-103.236923-0.344616-154.88z" fill="#1195FE" p-id="17540"></path></svg>