<?xml version="1.0" standalone="no"?><!DOCTYPE svg PUBLIC "-//W3C//DTD SVG 1.1//EN" "http://www.w3.org/Graphics/SVG/1.1/DTD/svg11.dtd"><svg class="icon" width="200px" height="200.00px" viewBox="0 0 1024 1024" version="1.1" xmlns="http://www.w3.org/2000/svg"><path fill="#1ecc29" d="M512 0C229.205333 0 0 229.205333 0 512s229.205333 512 512 512 512-229.205333 512-512-229.205333-512-512-512z m256.113778 725.333333c-2.673778 2.56-27.875556 37.319111-82.147556 64.056889a109.454222 109.454222 0 0 1-39.594666 7.054222 181.475556 181.475556 0 0 1-50.915556-8.305777c-68.380444-20.024889-125.496889-60.416-177.436444-109.056-69.916444-65.479111-127.146667-141.141333-164.238223-231.708445-17.635556-43.178667-29.696-87.893333-25.315555-135.68 2.787556-31.744 14.904889-58.481778 38.855111-79.189333 14.222222-12.401778 27.704889-25.656889 41.642667-38.343111A85.617778 85.617778 0 0 1 366.705778 170.666667c22.755556 0 45.283556 9.955556 63.089778 29.525333 9.272889 10.24 18.261333 20.821333 27.249777 31.516444 32.199111 38.286222 29.240889 92.728889-6.940444 127.089778-13.255111 12.515556-26.225778 25.486222-40.277333 36.977778-10.183111 8.476444-12.288 18.318222-10.410667 30.549333 3.754667 23.893333 13.710222 45.340444 26.282667 65.365334 25.201778 40.334222 56.32 74.865778 96.426666 99.726222 10.865778 6.599111 22.983111 11.093333 34.816 15.473778a25.543111 25.543111 0 0 0 9.102222 1.763555 25.372444 25.372444 0 0 0 18.147556-8.476444c12.913778-13.027556 26.453333-25.144889 40.049778-37.262222 17.976889-16.384 38.627556-24.462222 58.936889-24.462223 23.210667 0 46.193778 10.581333 64.625777 31.345778 8.988444 10.126222 17.863111 20.423111 26.567112 30.890667 31.630222 38.456889 29.013333 89.998222-6.257778 124.643555z"  /></svg>