<?xml version="1.0" standalone="no"?><!DOCTYPE svg PUBLIC "-//W3C//DTD SVG 1.1//EN" "http://www.w3.org/Graphics/SVG/1.1/DTD/svg11.dtd"><svg t="1709169612914" class="icon" viewBox="0 0 1024 1024" version="1.1" xmlns="http://www.w3.org/2000/svg" p-id="7837" xmlns:xlink="http://www.w3.org/1999/xlink" width="200" height="200"><path d="M670.485943 634.148571l-71.387429 264.192-51.931428-161.119085s2.720914-19.456 18.987885-55.383772c16.471771-36.161829 19.017143-52.750629-13.546057-74.839771a59.011657 59.011657 0 0 0-51.492571-8.192 59.918629 59.918629 0 0 0-38.239086 35.84c-13.575314 35.986286 24.429714 55.442286 24.429714 77.6192s-43.797943 180.604343-43.797942 180.604343-63.488-223.085714-77.472915-262.816915C251.114057 664.897829 148.392229 741.902629 87.888457 861.622857l-3.130514 6.3488c-34.494171 67.847314 17.846857 146.461257 97.309257 146.461257h659.836343c78.555429 0 130.779429-76.829257 98.391771-144.559543-57.344-119.720229-157.023086-198.334171-269.750857-235.7248h-0.058514zM798.134857 280.663771C798.134857 125.659429 675.722971 0 524.639086 0 373.613714 0 251.026286 125.659429 251.026286 280.663771c0 155.0336 122.587429 280.634514 273.6128 280.634515s273.437257-125.600914 273.437257-280.634515h0.058514z" fill="#0958A1" p-id="7838"></path></svg>