<?xml version="1.0" standalone="no"?><!DOCTYPE svg PUBLIC "-//W3C//DTD SVG 1.1//EN" "http://www.w3.org/Graphics/SVG/1.1/DTD/svg11.dtd"><svg t="1706254323726" class="icon" viewBox="0 0 1024 1024" version="1.1" xmlns="http://www.w3.org/2000/svg" p-id="5756" xmlns:xlink="http://www.w3.org/1999/xlink" width="200" height="200"><path d="M536.4 573h48.8v36.6h-48.8V573zM536.4 707h48.8v36.6h-48.8V707zM536.4 841.1h48.8v36.6h-48.8v-36.6zM621.7 573h304.8v36.6H621.7V573zM621.7 707h304.8v36.6H621.7V707zM621.7 841.1h304.8v36.6H621.7v-36.6z" fill="#989EEE" p-id="5757"></path><path d="M451 97.5H134c-20.2 0-36.6 16.4-36.6 36.6v317c0 20.2 16.4 36.6 36.6 36.6h317c20.2 0 36.6-16.4 36.6-36.6v-317c0-20.2-16.4-36.6-36.6-36.6zM889.9 97.5H573c-20.2 0-36.6 16.4-36.6 36.6v317c0 20.2 16.4 36.6 36.6 36.6h317c20.2 0 36.6-16.4 36.6-36.6v-317c-0.1-20.2-16.5-36.6-36.7-36.6zM451 536.4H134c-20.2 0-36.6 16.4-36.6 36.6v317c0 20.2 16.4 36.6 36.6 36.6h317c20.2 0 36.6-16.4 36.6-36.6V573c0-20.2-16.4-36.6-36.6-36.6z" fill="#989EEE" p-id="5758"></path></svg>