<?xml version="1.0" standalone="no"?><!DOCTYPE svg PUBLIC "-//W3C//DTD SVG 1.1//EN" "http://www.w3.org/Graphics/SVG/1.1/DTD/svg11.dtd"><svg t="1706254280915" class="icon" viewBox="0 0 1024 1024" version="1.1" xmlns="http://www.w3.org/2000/svg" p-id="3703" xmlns:xlink="http://www.w3.org/1999/xlink" width="200" height="200"><path d="M788.1216 107.6736H243.8144c-73.0624 0-132.5056 59.4432-132.5056 132.5056v544.3072c0 73.0624 59.4432 132.5056 132.5056 132.5056h544.3072c73.0624 0 132.5056-59.4432 132.5056-132.5056V240.1792c-0.0512-73.0624-59.4944-132.5056-132.5056-132.5056zM355.4304 277.3504c17.5104-5.6832 36.2496 3.8912 41.9328 21.3504a124.38016 124.38016 0 0 0 118.5792 86.1184c54.2208 0 101.888-34.6112 118.6304-86.1184 5.6832-17.4592 24.4736-27.0336 41.9328-21.4016s27.0336 24.4224 21.4016 41.9328c-25.6512 79.0528-98.7648 132.1472-181.9136 132.1472a190.79168 190.79168 0 0 1-181.9136-132.096c-5.7344-17.4592 3.84-36.2496 21.3504-41.9328z m323.3792 498.0736H353.1264a33.28 33.28 0 1 1 0-66.56h325.6832a33.28 33.28 0 1 1 0 66.56z" fill="#6893DF" p-id="3704"></path></svg>