<?xml version="1.0" standalone="no"?><!DOCTYPE svg PUBLIC "-//W3C//DTD SVG 1.1//EN" "http://www.w3.org/Graphics/SVG/1.1/DTD/svg11.dtd"><svg t="1705021839796" class="icon" viewBox="0 0 1024 1024" version="1.1" xmlns="http://www.w3.org/2000/svg" p-id="13408" xmlns:xlink="http://www.w3.org/1999/xlink" width="200" height="200"><path d="M512 512H0A512 512 0 1 0 512 0 512 512 0 0 0 0 512z" fill="#6FA2F8" p-id="13409"></path><path d="M535.156861 789.846434H305.167941a71.804221 71.804221 0 0 1-71.804222-71.804221V305.167941a71.804221 71.804221 0 0 1 71.804222-71.804222h341.070051a71.804221 71.804221 0 0 1 71.804221 71.804222v412.874272a71.804221 71.804221 0 0 1-71.804221 71.804221h-111.081131a76.238132 76.238132 0 0 1-21.307902-12.799102 42.220882 42.220882 0 0 1-15.186593-24.341631 33.424865 33.424865 0 0 1 10.770633-29.116612 136.840895 136.840895 0 0 0 25.50845-33.945445 65.252086 65.252086 0 0 0 4.290302-11.255312c0.412874-1.52584 0.771895-3.015777 1.148867-4.703177v-0.430825l0.143609-0.68214 0.807797-3.931281a47.911367 47.911367 0 0 1 1.274525-4.93654l1.597644-4.954492 5.044247 2.172078a67.801136 67.801136 0 0 1 31.234836 26.082883 75.268775 75.268775 0 0 1 8.813968 20.284693l0.556483 2.118224 0.233364 0.933455 0.323119-0.753944c0.538532-1.274525 1.059112-2.567001 1.579693-3.949232l3.320945-8.652409 5.385316 7.377884c18.094664 25.131477 21.541266 46.367576 10.1962 63.223617a54.930229 54.930229 0 0 1-19.476895 16.909894c-1.543791 0.8437-3.23119 1.70535-5.008345 2.54905a129.714326 129.714326 0 0 0 66.418905-38.361406 98.353832 98.353832 0 0 0 26.316247-66.418904 83.975037 83.975037 0 0 0-5.062197-35.902111 368.732627 368.732627 0 0 0-25.454597-45.182806 147.037094 147.037094 0 0 1-12.906809-22.690134 40.156511 40.156511 0 0 1-0.107706-29.296122 16.048243 16.048243 0 0 0-3.464554-0.376973c-12.063109 0-21.056588 12.278522-26.765023 21.541267a112.409508 112.409508 0 0 0-6.12131 21.541266v0.107707a131.383774 131.383774 0 0 1-13.678704 41.287427 3.374798 3.374798 0 0 1-2.54905 1.148867 3.249141 3.249141 0 0 1-3.069631-1.992567 243.200898 243.200898 0 0 1-19.333286-92.124816 100.274595 100.274595 0 0 1 4.541617-31.593857 98.605147 98.605147 0 0 0-48.916626 37.194587 116.879321 116.879321 0 0 0-15.581516 32.114438l-0.17951 0.574433-0.215413 0.68214a347.191361 347.191361 0 0 0-2.656756 65.754716 3.590211 3.590211 0 0 1-3.590211 3.213239 3.590211 3.590211 0 0 1-3.356848-2.028469 215.412664 215.412664 0 0 1-14.737816-47.175374 67.065143 67.065143 0 0 0-1.292476-11.075801v0.251315a153.589229 153.589229 0 0 0-47.857514 93.991726 100.346399 100.346399 0 0 0 31.252788 71.570857A133.071173 133.071173 0 0 0 535.156861 789.846434zM315.507748 459.870135a17.951055 17.951055 0 0 0-17.951055 17.951056v1.005259a17.951055 17.951055 0 0 0 17.951055 17.951055h56.366314a17.951055 17.951055 0 0 0 17.951055-17.951055v-1.005259a17.951055 17.951055 0 0 0-17.951055-17.951056z m0-73.814739a17.951055 17.951055 0 0 0-17.951055 17.951055v1.005259a17.951055 17.951055 0 0 0 17.951055 17.951056h130.163103a17.951055 17.951055 0 0 0 17.951055-17.951056v-1.005259a17.951055 17.951055 0 0 0-17.951055-17.951055z m0-73.81474a17.951055 17.951055 0 0 0-17.951055 17.951056v1.005259a17.951055 17.951055 0 0 0 17.951055 17.951055h222.449478a17.951055 17.951055 0 0 0 17.951055-17.951055v-1.005259a17.951055 17.951055 0 0 0-17.951055-17.951056z" fill="#FFFFFF" p-id="13410"></path><path d="M682.140102 774.498282V386.055396l85.141856 32.688872a76.579202 76.579202 0 0 1 42.310637 40.246266 74.33532 74.33532 0 0 1 2.225931 56.456069l-82.700512 213.707313A77.638314 77.638314 0 0 1 682.140102 774.498282z" fill="#FFFFFF" opacity=".5" p-id="13411"></path></svg>