<?xml version="1.0" standalone="no"?><!DOCTYPE svg PUBLIC "-//W3C//DTD SVG 1.1//EN" "http://www.w3.org/Graphics/SVG/1.1/DTD/svg11.dtd"><svg t="1705021892365" class="icon" viewBox="0 0 1024 1024" version="1.1" xmlns="http://www.w3.org/2000/svg" p-id="14555" xmlns:xlink="http://www.w3.org/1999/xlink" width="200" height="200"><path d="M894.8224 939.5712V104.0384L777.9328 25.6l-427.52 190.6176v147.5072L114.2784 446.1056v493.4656h-23.552V998.4h76.8512V479.8464L480.6144 377.856V998.4h216.5248v-63.5392h-47.872V367.6672L535.552 299.4176l-127.1296 43.9296V250.7776l308.3264-137.3184V998.4h216.5248v-58.8288h-38.4512z" fill="#16B2F7" p-id="14556"></path><path d="M206.0288 612.4032l225.9456-73.728v-97.28l-225.9456 77.6704v93.3376zM206.0288 739.5328l225.9456-49.4592v-97.28l-225.9456 58.8288v87.9104zM206.0288 871.3216l225.9456-29.8496v-97.28l-225.9456 34.56v92.5696zM206.0288 998.4l225.9456-4.7104v-98.048l-225.9456 10.1888V998.4z" fill="#16B2F7" p-id="14557"></path></svg>