<?xml version="1.0" standalone="no"?><!DOCTYPE svg PUBLIC "-//W3C//DTD SVG 1.1//EN" "http://www.w3.org/Graphics/SVG/1.1/DTD/svg11.dtd"><svg t="1706254369433" class="icon" viewBox="0 0 1024 1024" version="1.1" xmlns="http://www.w3.org/2000/svg" p-id="7686" xmlns:xlink="http://www.w3.org/1999/xlink" width="200" height="200"><path d="M128.869699 53.374247L91.178082 92.707068v843.299069l36.976219 36.990247L165.144548 1009.972603h693.710904l36.990247-36.976219L932.821918 936.006137V229.684603l-45.589041-41.198466L841.643836 147.287671l41.198465 45.589041L924.040767 238.465753h-85.777534C724.753534 238.465753 708.383562 221.548712 708.383562 104.209534V14.027397H166.561315L128.869699 53.374247M729.424658 736.438356v42.082192H484.141589c-225.476384 0-245.689863-2.048-250.17863-25.361534-12.428274-64.540055-3.619068-66.714301 253.180493-62.646356L729.424658 694.356164v42.082192m0-196.383561v42.082191H484.141589c-225.476384 0-245.689863-2.048-250.17863-25.361534-12.428274-64.540055-3.619068-66.714301 253.180493-62.646356L729.424658 497.972603v42.082192m-224.438357-196.383562v42.082192h-133.06389c-117.226959 0-133.653041-3.01589-137.959452-25.361535-11.572603-60.079342 4.180164-67.093041 141.031452-62.842739l129.99189 4.03989v42.082192" fill="#F66462" p-id="7687"></path><path d="M708.944658 99.524384c-0.729425 120.355068 20.129315 142.195726 130.090082 136.177972l77.683726-4.250301-103.606356-112.219178-103.620384-112.219178-0.547068 92.510685" fill="#FFAEAE" p-id="7688"></path><path d="M771.506849 63.123288L820.60274 112.219178l-49.095891-49.09589L722.410959 14.027397l49.09589 49.095891" fill="#F66462" p-id="7689"></path></svg>