<?xml version="1.0" standalone="no"?><!DOCTYPE svg PUBLIC "-//W3C//DTD SVG 1.1//EN" "http://www.w3.org/Graphics/SVG/1.1/DTD/svg11.dtd"><svg t="1704693542118" class="icon" viewBox="0 0 1024 1024" version="1.1" xmlns="http://www.w3.org/2000/svg" p-id="3608" xmlns:xlink="http://www.w3.org/1999/xlink" width="200" height="200"><path d="M61.281 512a450.56 450.56 0 1 0 901.12 0 450.56 450.56 0 1 0-901.12 0z" fill="#92CEF8" p-id="3609"></path><path d="M240.803 583.997a346.64 346.64 0 1 0 693.28 0 346.64 346.64 0 1 0-693.28 0z" fill="#62B4F9" p-id="3610"></path><path d="M481.659 486.22a245.248 245.248 0 1 1 0.03 346.773 245.207 245.207 0 0 1-0.03-346.772z" fill="#3599F3" p-id="3611"></path><path d="M741.504 652.088l-34.534 9.616a217.528 217.528 0 0 1 7.075 39.67c-58.23-0.082-114.385-0.513-168.688-0.948-101.514-0.793-189.194-1.485-258.704 0.615a215.88 215.88 0 0 1 213.668-196.818 134.282 134.282 0 1 0-76.288-24.008A250.813 250.813 0 0 0 250.921 698.02a35.784 35.784 0 0 0 36.618 38.717c68.936-1.833 156.33-1.152 257.536-0.358 54.36 0.43 110.592 0.865 168.92 0.947h0.045a35.84 35.84 0 0 0 35.707-38.687 252.017 252.017 0 0 0-8.243-46.55z m-339.272-282.24a98.089 98.089 0 1 1 98.09 98.417 98.36 98.36 0 0 1-98.09-98.417z m179.676 179.605l42.21-44.14-25.861-24.893-64.712 67.676a28.298 28.298 0 0 0-0.456 38.518l58.23 63.877 26.445-24.264-37.202-40.816H773.12v-35.958H581.908z" fill="#FFFFFF" p-id="3612"></path></svg>