<?xml version="1.0" standalone="no"?><!DOCTYPE svg PUBLIC "-//W3C//DTD SVG 1.1//EN" "http://www.w3.org/Graphics/SVG/1.1/DTD/svg11.dtd"><svg t="1710122054404" class="icon" viewBox="0 0 1024 1024" version="1.1" xmlns="http://www.w3.org/2000/svg" p-id="3692" xmlns:xlink="http://www.w3.org/1999/xlink" width="200" height="200"><path d="M618.6 906.8H229.8c-45.2 0-82-36.8-82-82V201.4c0-45.2 36.8-82 82-82H668c45.2 0 82 36.8 82 82v126.8c0 14.7 11.9 26.6 26.6 26.6s26.6-11.9 26.6-26.6V201.4c0-74.5-60.6-135.1-135.1-135.1H229.8c-74.5 0-135.1 60.6-135.1 135.1v623.4c0 74.5 60.6 135.1 135.1 135.1h388.9c14.7 0 26.6-11.9 26.6-26.6-0.1-14.6-12-26.5-26.7-26.5z" fill="#3487FF" p-id="3693"></path><path d="M563.2 343.7c0-15.8-12.9-28.8-28.8-28.8H268c-15.8 0-28.8 12.9-28.8 28.8 0 15.8 12.9 28.8 28.8 28.8h266.3c15.9 0 28.9-13 28.9-28.8zM268 547.5h219.5c15.8 0 28.8-12.9 28.8-28.8 0-15.8-12.9-28.8-28.8-28.8H268c-15.8 0-28.8 12.9-28.8 28.8 0.1 15.9 13 28.8 28.8 28.8zM239.3 693.8c0 15.8 12.9 28.8 28.8 28.8h250.2c15.8 0 28.8-12.9 28.8-28.8C547 678 534 665 518.2 665H268c-15.8 0-28.7 13-28.7 28.8zM920.7 584.7L795.3 459.4c-10.4-10.4-27.2-10.4-37.6 0L632.5 584.7c-10.4 10.4-10.4 27.2 0 37.6 10.4 10.4 27.2 10.4 37.6 0l80-80v301.6c0 14.7 11.9 26.6 26.6 26.6s26.6-11.9 26.6-26.6V542.2l80 80c5.2 5.2 12 7.8 18.8 7.8 6.8 0 13.6-2.6 18.8-7.8 10.1-10.3 10.1-27.2-0.2-37.5z" fill="#3487FF" p-id="3694"></path></svg>