<?xml version="1.0" standalone="no"?><!DOCTYPE svg PUBLIC "-//W3C//DTD SVG 1.1//EN" "http://www.w3.org/Graphics/SVG/1.1/DTD/svg11.dtd"><svg t="1709169564210" class="icon" viewBox="0 0 1267 1024" version="1.1" xmlns="http://www.w3.org/2000/svg" p-id="5809" xmlns:xlink="http://www.w3.org/1999/xlink" width="247.4609375" height="200"><path d="M1234.310095 301.251048h-118.686476a32.085333 32.085333 0 0 0-15.457524 4.291047l-53.491809-165.302857C1029.510095 46.275048 964.998095 0.926476 885.76 0.926476H383.171048c-90.989714 0-146.236952 60.952381-160.914286 139.312762l-53.638095 165.790476a32.085333 32.085333 0 0 0-16.384-4.729904H33.54819a33.450667 33.450667 0 0 0-33.060571 33.938285v29.403429c0 18.724571 14.823619 33.889524 33.060571 33.889524l44.909715 7.850666a217.721905 217.721905 0 0 0-22.284191 98.889143l-16.627809 195.047619c0 5.705143 0.390095 11.459048 1.072762 17.261714a62.561524 62.561524 0 0 0-1.072762 11.020191v234.691048c0 33.401905 26.428952 60.464762 59.001905 60.464761h90.014476c32.572952 0 58.953143-27.062857 58.953143-60.464761v-75.434667h773.851428v75.434667c0 33.401905 26.428952 60.464762 59.001905 60.464761h90.014476c32.572952 0 59.001905-27.062857 59.001905-60.464761V728.502857c0-3.803429-0.487619-7.460571-1.121524-11.02019a154.087619 154.087619 0 0 0 1.121524-17.212953l-16.676572-195.096381c0-37.936762-8.094476-70.558476-22.332952-99.08419l43.885714-7.655619a33.450667 33.450667 0 0 0 33.060572-33.889524v-29.403429a33.450667 33.450667 0 0 0-33.01181-33.938285z m-972.312381-34.718477l39.253334-107.27619 0.536381-2.486857c3.900952-21.699048 12.678095-25.551238 25.551238-42.325334h615.033904c13.019429 17.212952 21.065143 21.601524 24.673524 42.081524l39.936 110.006857 14.628572 59.733334c-3.364571 43.739429-54.564571 78.262857-97.182477 78.262857H344.502857c-42.666667 0-93.866667-34.523429-97.182476-78.262857l14.628571-59.733334z m115.321905 468.455619a76.702476 76.702476 0 0 1-33.596952 28.525715c-14.726095 6.875429-32.182857 10.288762-52.419048 10.288762-24.234667 0-44.227048-4.681143-59.977143-14.043429a80.847238 80.847238 0 0 1-27.209143-27.062857 62.610286 62.610286 0 0 1-10.483809-32.914286c0-6.192762 2.096762-11.50781 6.339047-15.896381a21.065143 21.065143 0 0 1 15.945143-6.631619c5.266286 0 9.703619 1.755429 13.312 5.168762a40.472381 40.472381 0 0 1 9.313524 15.311238c3.120762 7.996952 6.534095 14.677333 10.142476 20.089905 3.608381 5.36381 8.728381 9.801143 15.311238 13.312 6.582857 3.462095 15.262476 5.217524 25.990096 5.217524 14.726095 0 26.672762-3.510857 35.888762-10.532572a32.036571 32.036571 0 0 0 13.84838-26.38019 28.379429 28.379429 0 0 0-7.460571-20.382476 48.128 48.128 0 0 0-19.260952-11.897905 326.363429 326.363429 0 0 0-31.548953-8.777143 227.523048 227.523048 0 0 1-44.373333-14.872381 71.972571 71.972571 0 0 1-28.281905-23.210667c-6.972952-9.752381-10.48381-21.942857-10.483809-36.473904 0-13.848381 3.754667-26.185143 11.068952-36.961524 7.363048-10.727619 18.041905-19.017143 31.98781-24.868572a128.341333 128.341333 0 0 1 49.249523-8.630857c15.11619 0 28.135619 1.950476 39.107048 5.753905 11.02019 3.85219 20.138667 8.923429 27.40419 15.262476 7.265524 6.38781 12.580571 13.06819 15.896381 20.041143a47.104 47.104 0 0 1 5.022477 20.48 24.478476 24.478476 0 0 1-6.290286 16.384 19.797333 19.797333 0 0 1-15.60381 7.314286c-5.705143 0-10.044952-1.462857-13.019428-4.388572a59.440762 59.440762 0 0 1-9.606095-14.336 65.194667 65.194667 0 0 0-16.091429-22.28419c-6.241524-5.36381-16.286476-7.996952-30.134857-7.996952-12.873143 0-23.210667 2.925714-31.110095 8.728381-7.850667 5.753905-11.800381 12.678095-11.800381 20.870095 0 5.022476 1.365333 9.362286 4.047238 13.019428a34.133333 34.133333 0 0 0 11.02019 9.45981c4.729905 2.633143 9.45981 4.681143 14.238476 6.192762 4.827429 1.462857 12.775619 3.657143 23.79581 6.534095 13.848381 3.31581 26.38019 6.972952 37.595429 10.971429 11.215238 3.998476 20.772571 8.874667 28.672 14.628571 7.850667 5.705143 13.994667 12.970667 18.383238 21.699048 4.388571 8.777143 6.631619 19.504762 6.631619 32.231619 0 15.213714-3.803429 28.91581-11.459048 41.057523z m256.731429 31.548953a23.113143 23.113143 0 0 1-17.164191 7.314286 20.675048 20.675048 0 0 1-17.066667-7.996953 54.905905 54.905905 0 0 1-6.144-11.361524 627.516952 627.516952 0 0 1-5.558857-13.458285l-11.702857-31.646477H476.501333l-11.702857 32.280381c-4.583619 12.629333-8.484571 21.113905-11.751619 25.551239-3.218286 4.388571-8.533333 6.582857-15.896381 6.582857a23.113143 23.113143 0 0 1-16.579047-7.021715 21.894095 21.894095 0 0 1-7.216762-15.993904c0-3.413333 0.536381-6.972952 1.657904-10.630096 1.121524-3.705905 2.974476-8.777143 5.558858-15.311238l62.805333-163.547428 6.436571-16.920381a86.79619 86.79619 0 0 1 8.045715-16.432762 33.109333 33.109333 0 0 1 11.215238-10.532572 33.743238 33.743238 0 0 1 17.16419-4.047238c6.92419 0 12.678095 1.365333 17.359238 4.047238a33.645714 33.645714 0 0 1 11.215238 10.386286c2.82819 4.242286 5.217524 8.777143 7.168 13.653333 1.950476 4.87619 4.486095 11.361524 7.460572 19.504762l64.170666 162.523429c5.022476 12.385524 7.509333 21.357714 7.509334 26.965333 0 5.851429-2.340571 11.215238-7.119238 16.091429z m211.821714-2.779429c-4.242286 3.85219-10.435048 5.753905-18.627048 5.753905h-120.051809c-10.825143 0-18.627048-2.438095-23.405715-7.363048-4.729905-4.924952-7.119238-12.873143-7.119238-23.893333v-193.974857c0-10.288762 2.29181-18.041905 6.826667-23.161905a22.576762 22.576762 0 0 1 17.846857-7.753143 23.405714 23.405714 0 0 1 18.139429 7.655619c4.632381 5.071238 6.92419 12.873143 6.92419 23.259429v183.344762h100.839619c8.045714 0 14.189714 1.950476 18.529524 5.997714a19.846095 19.846095 0 0 1 6.436572 15.116191c0 6.192762-2.096762 11.215238-6.339048 15.018666z m222.354286 0.195048c-3.998476 3.705905-9.898667 5.558857-17.700572 5.558857h-135.168c-10.825143 0-18.627048-2.438095-23.405714-7.363048-4.681143-4.924952-7.070476-12.873143-7.070476-23.893333v-189.342476c0-7.314286 1.072762-13.312 3.169524-17.944381a19.894857 19.894857 0 0 1 9.99619-10.142476 41.155048 41.155048 0 0 1 17.310476-3.169524h131.31581c7.94819 0 13.799619 1.80419 17.651809 5.412571a18.529524 18.529524 0 0 1 5.802667 14.140953c0 5.997714-1.950476 10.776381-5.802667 14.384762-3.85219 3.608381-9.752381 5.412571-17.651809 5.412571h-112.054857v61.830095h103.18019c7.606857 0 13.214476 1.755429 17.017905 5.266286a18.090667 18.090667 0 0 1 5.607619 13.799619 18.724571 18.724571 0 0 1-5.558857 14.043429c-3.657143 3.608381-9.362286 5.36381-17.066667 5.363809h-103.18019v71.68h115.907047c7.801905 0 13.702095 1.852952 17.65181 5.558857a19.407238 19.407238 0 0 1 5.948952 14.872381 19.017143 19.017143 0 0 1-5.948952 14.531048zM489.569524 671.061333h73.337905l-37.010286-103.911619-36.327619 103.911619z" fill="#d4237a" p-id="5810"></path></svg>