<?xml version="1.0" standalone="no"?><!DOCTYPE svg PUBLIC "-//W3C//DTD SVG 1.1//EN" "http://www.w3.org/Graphics/SVG/1.1/DTD/svg11.dtd"><svg class="icon" width="200px" height="200.00px" viewBox="0 0 1024 1024" version="1.1" xmlns="http://www.w3.org/2000/svg"><path d="M512 512m-450.56 0a450.56 450.56 0 1 0 901.12 0 450.56 450.56 0 1 0-901.12 0Z" fill="#69C0FF" /><path d="M543.70304 645.90848c0 7.8336 1.05472 14.46912 2.11968 22.30272H352.99328v22.31296c0 12.25728-9.51296 22.30272-21.1968 22.30272h-63.5904c-11.6224 0-21.1968-10.04544-21.1968-22.30272v-23.4496A45.08672 45.08672 0 0 1 215.2448 623.616v-89.14944c0-24.51456 12.73856-46.82752 31.744-57.93792-12.72832-4.5056-21.17632-16.75264-21.17632-31.22176 0-18.944 13.79328-33.42336 31.744-33.42336h24.3712l22.26176-94.7712c4.22912-15.60576 15.91296-27.87328 29.6448-32.3584a501.47328 501.47328 0 0 1 269.09696 0c14.848 4.48512 25.41568 16.75264 29.6448 32.3584l23.30624 94.7712h35.072c18.0224 0 31.744 14.47936 31.744 33.42336 0 17.8176-12.72832 32.3584-28.57984 33.4336 10.56768 6.68672 18.0224 16.73216 23.31648 27.8528-11.63264-3.34848-23.30624-5.56032-36.05504-5.56032-76.21632-0.06144-137.68704 64.64512-137.68704 144.88576zM300.032 612.48512c23.30624 0 42.38336-20.09088 42.38336-44.60544S323.34848 523.264 300.032 523.264c-23.30624 0-42.3936 20.09088-42.3936 44.61568 0 24.51456 19.08736 44.60544 42.3936 44.60544z m45.568-284.33408L322.28352 445.2352h294.51264l-23.31648-117.0944a463.50336 463.50336 0 0 0-123.9552-16.7424 463.50336 463.50336 0 0 0-123.9552 16.7424l0.02048 0.01024zM691.2 764.0064c-63.44704 0-114.8928-51.97824-114.8928-116.15232 0-64.1536 51.43552-116.14208 114.8928-116.14208 63.46752 0 114.91328 51.97824 114.91328 116.15232 0 64.16384-51.44576 116.14208-114.90304 116.14208z m-46.592-160.02048v9.44128h93.22496v-9.44128H644.608h0.01024z m-12.09344 83.456v9.728h117.20704v-9.728H632.5248z" fill="#FFFFFF" /></svg>