<?xml version="1.0" standalone="no"?><!DOCTYPE svg PUBLIC "-//W3C//DTD SVG 1.1//EN" "http://www.w3.org/Graphics/SVG/1.1/DTD/svg11.dtd"><svg t="1703485135828" class="icon" viewBox="0 0 1024 1024" version="1.1" xmlns="http://www.w3.org/2000/svg" p-id="4828" xmlns:xlink="http://www.w3.org/1999/xlink" width="200" height="200"><path d="M511.7 66.6C266.7 66.6 66.2 267 66.2 512c0 102.5 40.1 191.5 44.5 191.5l-4.5 187.1c0 13.4 8.9 35.6 35.6 35.6l200.5-4.5s71.3 35.6 169.3 35.6c245 0 445.5-200.5 445.5-445.5 0.1-244.8-200.4-445.2-445.4-445.2z m-1.2 748.3c-165.3 0-303.7-134-303.7-303.7 4.5-49.1 67-44.7 67 0 0 129.5 107.2 232.3 232.3 232.3 129.5 0 232.3-107.2 232.3-232.3 0-44.7 67-49.1 67 0 8.8 165.3-129.6 303.7-294.9 303.7z" fill="#00CDA2" p-id="4829"></path></svg>